<svg width="445" height="348" viewBox="0 0 445 348" fill="none" xmlns="http://www.w3.org/2000/svg">
    <g clip-path="url(#clip0)">
    <path d="M78.4897 286.781C71.0409 281.786 64.0621 270.373 70.2417 260.838C73.3065 256.11 78.654 254.361 83.6907 253.846C90.6576 253.134 97.705 254.591 104.185 256.792C111.658 259.331 118.674 263.017 125.624 266.733C132.485 270.401 139.382 273.979 146.428 277.27C160.313 283.75 174.596 289.342 189.192 294.012C203.5 298.598 218.083 302.282 232.854 305.041C240.186 306.408 247.565 307.534 254.99 308.42C261.922 309.243 268.909 309.994 275.934 309.964C285.189 309.925 300.638 308.849 304.039 297.021C305.842 290.75 303.402 284.228 300.35 279.156C296.66 273.024 291.595 267.961 286.626 263.024C263.512 240.061 240.343 217.16 217.118 194.32C211.711 188.976 206.23 183.689 201.203 177.937C196.497 172.551 192.013 166.679 189.191 159.877C186.726 153.936 185.282 146.688 187.949 140.255C190.161 134.921 194.92 131.519 199.896 129.53C212.216 124.605 226.311 126.158 238.541 128.863C253.736 132.223 268.263 137.903 283.437 141.343C295.689 144.121 309.366 145.592 321.852 141.407C326.639 139.802 331.34 137.167 334.554 132.891C337.703 128.703 338.807 123.459 338.307 118.371C337.718 112.366 335.212 106.788 332.214 101.851C328.637 96.0976 324.272 90.8717 319.245 86.3251C308.483 76.3822 296.131 68.5726 284.606 59.6684C278.954 55.3016 273.308 50.7284 268.639 45.1934C264.683 40.504 260.65 34.69 259.995 28.1284C258.644 14.5902 275.034 13.229 283.826 13.7216C289.817 14.1417 295.771 14.9844 301.644 16.2434C302.9 16.4943 303.157 14.3693 301.906 14.1196C295.736 12.8875 289.493 11.8215 283.163 11.552C277.834 11.3251 272.158 11.5448 267.044 13.7384C262.749 15.5806 259.124 19.165 258.159 24.0653C257.019 29.8633 259.637 35.6952 262.448 40.2757C266.164 46.333 271.163 51.2921 276.434 55.8013C281.986 60.5503 287.867 64.8579 293.759 69.1313C305.534 77.6705 318.042 86.0666 327.03 97.9698C333.318 106.296 340.829 120.24 333.442 131.009C330.162 135.79 324.841 138.452 319.651 139.912C313.379 141.677 306.855 142.008 300.501 141.676C270.87 140.129 244.429 122.655 214.258 124.482C203.999 125.104 190.587 128.289 186.007 139.747C183.628 145.699 184.395 152.309 186.298 158.038C188.576 164.901 192.654 170.909 197.074 176.326C201.751 182.056 206.97 187.257 212.189 192.422C217.999 198.17 223.811 203.915 229.626 209.657L264.906 244.527L282.435 261.852C287.785 267.14 293.344 272.379 297.601 278.738C301.087 283.945 304.606 291.629 301.458 298.238C298.957 303.487 293.073 305.682 288.069 306.734C281.591 308.095 274.942 308.016 268.466 307.58C260.997 307.077 253.558 306.175 246.175 305.092C230.972 302.853 215.935 299.612 201.16 295.392C186.334 291.168 171.792 286.003 157.624 279.929C150.463 276.858 143.405 273.555 136.452 270.018C129.285 266.371 122.307 262.337 115.029 258.916C108.447 255.822 101.579 253.265 94.3467 252.135C88.3075 251.192 81.5792 251.086 75.6913 253.703C73.6107 254.617 71.7462 255.958 70.2188 257.639C68.6914 259.321 67.5354 261.304 66.826 263.46C65.5072 267.861 65.7494 272.581 67.5117 276.824C69.4996 281.613 72.891 285.69 77.2408 288.52C78.3049 289.234 79.5584 287.498 78.4896 286.781L78.4897 286.781Z" fill="#FCFCFC"/>
    <path d="M445 55.3063H281.567V0H445V55.3063Z" fill="white"/>
    <path d="M339.694 173.325H182.234V279.409H339.694V173.325Z" fill="white"/>
    <path d="M340.237 279.952H181.691V172.783H340.237V279.952ZM182.777 278.867H339.151V173.868H182.777V278.867Z" fill="#3F3D56"/>
    <path d="M195.54 256.155H326.388V181.741H195.54V256.155Z" fill="#E6E6E6"/>
    <path d="M234.033 228.008C241.276 228.008 247.147 222.144 247.147 214.911C247.147 207.678 241.276 201.815 234.033 201.815C226.79 201.815 220.918 207.678 220.918 214.911C220.918 222.144 226.79 228.008 234.033 228.008Z" fill="#007AFF"/>
    <path d="M275.158 255.269H210.823C210.742 255.27 210.662 255.264 210.582 255.25L241.01 202.618C241.196 202.29 241.465 202.017 241.791 201.828C242.117 201.638 242.487 201.538 242.864 201.538C243.241 201.538 243.612 201.638 243.937 201.828C244.263 202.017 244.533 202.29 244.718 202.618L265.139 237.938L266.117 239.628L275.158 255.269Z" fill="#3F3D56"/>
    <path opacity="0.2" d="M275.158 255.269H253.192L263.975 239.628L264.751 238.502L265.139 237.938L266.117 239.628L275.158 255.269Z" fill="black"/>
    <path d="M310.979 255.269H255.335L266.117 239.628L266.893 238.502L280.944 218.119C281.193 217.807 281.504 217.551 281.858 217.368C282.212 217.185 282.6 217.077 282.998 217.054C283.396 217.03 283.795 217.09 284.168 217.23C284.541 217.37 284.881 217.587 285.165 217.867C285.237 217.946 285.305 218.03 285.367 218.119L310.979 255.269Z" fill="#3F3D56"/>
    <path d="M397.219 74.8262H237.044V152.364H397.219V74.8262Z" fill="white"/>
    <path d="M263.065 112.06C269.464 112.06 274.651 106.88 274.651 100.49C274.651 94.0996 269.464 88.9194 263.065 88.9194C256.666 88.9194 251.479 94.0996 251.479 100.49C251.479 106.88 256.666 112.06 263.065 112.06Z" fill="#E6E6E6"/>
    <path d="M289.823 92.7761C289.311 92.7761 288.82 92.9793 288.458 93.3409C288.096 93.7026 287.892 94.1931 287.892 94.7045C287.892 95.2159 288.096 95.7064 288.458 96.0681C288.82 96.4297 289.311 96.6328 289.823 96.6328H380.857C381.368 96.6316 381.858 96.4279 382.219 96.0664C382.58 95.7049 382.783 95.2151 382.783 94.7045C382.783 94.1939 382.58 93.7041 382.219 93.3426C381.858 92.9811 381.368 92.7773 380.857 92.7761H289.823Z" fill="#E6E6E6"/>
    <path d="M289.823 104.346C289.57 104.345 289.318 104.395 289.083 104.491C288.849 104.587 288.635 104.729 288.455 104.907C288.275 105.086 288.133 105.298 288.035 105.532C287.937 105.766 287.887 106.017 287.886 106.271C287.886 106.524 287.935 106.775 288.032 107.009C288.128 107.244 288.27 107.457 288.45 107.636C288.629 107.815 288.842 107.958 289.076 108.055C289.31 108.152 289.561 108.203 289.815 108.203H328.995C329.507 108.203 329.999 108 330.361 107.638C330.723 107.276 330.926 106.786 330.926 106.275C330.926 105.763 330.723 105.273 330.361 104.911C329.999 104.549 329.507 104.346 328.995 104.346H289.823Z" fill="#E6E6E6"/>
    <path d="M254.178 122.844C252.709 122.844 251.514 123.709 251.514 124.772C251.514 125.835 252.709 126.7 254.178 126.7H379.776C381.245 126.7 382.441 125.835 382.441 124.772C382.441 123.709 381.245 122.844 379.776 122.844H254.178Z" fill="#E6E6E6"/>
    <path d="M254.178 134.414C252.709 134.414 251.514 135.279 251.514 136.342C251.514 137.405 252.709 138.27 254.178 138.27H379.776C381.245 138.27 382.441 137.405 382.441 136.342C382.441 135.279 381.245 134.414 379.776 134.414H254.178Z" fill="#E6E6E6"/>
    <path d="M398.848 153.99H235.415V73.1996H398.848V153.99ZM238.673 150.737H395.59V76.4529H238.673V150.737Z" fill="#E6E6E6"/>
    <path d="M309.217 38.8601C315.616 38.8601 320.803 33.68 320.803 27.29C320.803 20.9 315.616 15.7199 309.217 15.7199C302.818 15.7199 297.631 20.9 297.631 27.29C297.631 33.68 302.818 38.8601 309.217 38.8601Z" fill="#E6E6E6"/>
    <path d="M335.975 19.5766C335.463 19.5766 334.972 19.7797 334.61 20.1414C334.248 20.503 334.044 20.9935 334.044 21.5049C334.044 22.0164 334.248 22.5068 334.61 22.8685C334.972 23.2301 335.463 23.4333 335.975 23.4333H427.009C427.52 23.4321 428.01 23.2284 428.371 22.8669C428.733 22.5054 428.935 22.0156 428.935 21.5049C428.935 20.9943 428.733 20.5045 428.371 20.143C428.01 19.7815 427.52 19.5778 427.009 19.5766H335.975Z" fill="#E6E6E6"/>
    <path d="M335.975 31.1467C335.722 31.1459 335.47 31.195 335.236 31.2913C335.001 31.3876 334.787 31.5291 334.608 31.7079C334.428 31.8866 334.285 32.0989 334.187 32.3328C334.089 32.5667 334.039 32.8175 334.038 33.071C334.038 33.3244 334.087 33.5754 334.184 33.8097C334.281 34.044 334.423 34.257 334.602 34.4364C334.781 34.6159 334.994 34.7584 335.228 34.8556C335.462 34.9529 335.714 35.0031 335.967 35.0034H375.147C375.66 35.0034 376.151 34.8002 376.513 34.4386C376.875 34.0769 377.078 33.5865 377.078 33.075C377.078 32.5636 376.875 32.0731 376.513 31.7115C376.151 31.3498 375.66 31.1467 375.147 31.1467H335.975Z" fill="#E6E6E6"/>
    <path d="M445 55.3063H281.567V0H445V55.3063ZM284.825 52.053H441.742V3.25331H284.825V52.053Z" fill="#E6E6E6"/>
    <path d="M100.125 338.815L108.913 338.815L113.095 304.962L100.123 304.963L100.125 338.815Z" fill="#FFB8B8"/>
    <path d="M125.863 346.964L98.2417 346.965L98.2412 336.308L117.78 336.307C119.924 336.307 121.98 337.157 123.496 338.671C125.012 340.185 125.863 342.238 125.863 344.379L125.863 346.964Z" fill="#2F2E41"/>
    <path d="M64.9975 338.815L73.7865 338.815L77.9673 304.962L64.9964 304.963L64.9975 338.815Z" fill="#FFB8B8"/>
    <path d="M90.7365 346.964L63.1148 346.965L63.1143 336.308L82.653 336.307C84.7967 336.307 86.8527 337.157 88.3687 338.671C89.8846 340.185 90.7363 342.238 90.7364 344.379L90.7365 346.964L90.7365 346.964Z" fill="#2F2E41"/>
    <path d="M115.437 241.225C114.72 240.554 114.159 239.734 113.794 238.822C113.429 237.911 113.269 236.931 113.324 235.951C113.379 234.972 113.649 234.016 114.114 233.151C114.579 232.287 115.228 231.535 116.016 230.948L112.251 216.076L120.743 211.587L125.765 232.663C126.664 234.05 127.023 235.718 126.773 237.352C126.523 238.985 125.682 240.47 124.409 241.525C123.136 242.581 121.519 243.133 119.866 243.078C118.212 243.022 116.636 242.363 115.437 241.225Z" fill="#FFB8B8"/>
    <path d="M61.8722 215.249L62.5889 265.361L63.3056 331.223L79.0772 329.791L86.9627 238.873L96.9989 329.791H113.281L114.921 238.157L109.186 218.112L61.8722 215.249Z" fill="#2F2E41"/>
    <path d="M92.7402 221.978C75.5801 221.98 59.7844 214.224 59.5712 214.117L59.3941 214.029L57.954 179.517C57.5364 178.297 49.3136 154.233 47.921 146.584C46.51 138.834 66.9599 132.033 69.4432 131.238L70.0068 125.004L92.9235 122.538L95.828 130.515L104.05 133.593C104.982 133.942 105.753 134.621 106.217 135.5C106.682 136.38 106.807 137.399 106.57 138.364L102 156.921L110.989 218.314L110.758 218.418C104.999 221.016 98.7832 221.978 92.7402 221.978Z" fill="#007AFF"/>
    <path d="M113.228 225.83L105.275 193.136L96.6551 153.682L101.031 134.018H104.771C104.84 134.018 111.638 134.12 113.102 142.889C114.519 151.383 118.794 178.414 118.837 178.686L126.062 224.863L113.228 225.83Z" fill="#007AFF"/>
    <path d="M79.1976 220.305C79.1511 219.325 78.8899 218.367 78.4325 217.498C77.975 216.63 77.3324 215.872 76.55 215.278C75.7675 214.684 74.8642 214.269 73.9037 214.062C72.9432 213.854 71.9488 213.86 70.9906 214.078L62.1011 201.567L53.1705 205.108L65.9726 222.599C66.4458 224.182 67.4842 225.537 68.8909 226.407C70.2977 227.276 71.975 227.601 73.6052 227.318C75.2353 227.035 76.705 226.165 77.7357 224.873C78.7664 223.58 79.2866 221.955 79.1976 220.305H79.1976Z" fill="#FFB8B8"/>
    <path d="M61.8723 219.378L34.9742 184.531L45.0527 152.9C45.7913 144.947 50.7745 142.727 50.9866 142.636L51.31 142.497L60.0801 165.853L53.6408 183.001L69.446 209.546L61.8723 219.378Z" fill="#007AFF"/>
    <path d="M90.2776 116.571C98.2736 112.206 101.212 102.194 96.8412 94.2094C92.4702 86.2244 82.4447 83.2898 74.4487 87.6548C66.4526 92.0198 63.514 102.031 67.885 110.016C72.2561 118.002 82.2815 120.936 90.2776 116.571Z" fill="#FFB8B8"/>
    <path d="M93.4412 94.0871C91.7332 96.1057 88.8425 96.6753 86.1761 96.9088C80.7608 97.3831 72.8863 96.6138 67.5941 95.3936C67.2164 99.0495 68.2462 102.991 66.0899 105.999C65.0791 102.358 64.4914 98.6129 64.3382 94.8379C64.2729 93.2189 64.2985 91.544 64.9574 90.0578C65.6163 88.5715 67.053 87.3099 68.7077 87.2967C67.4784 86.3654 66.0385 85.7506 64.515 85.5067L69.7541 82.8774L68.4087 81.4981L77.8939 80.9184L75.1467 79.1755C79.2815 78.6082 83.4646 78.4763 87.627 78.7821C89.5599 78.9243 91.5808 79.196 93.1469 80.3144C94.713 81.4327 95.618 83.6555 94.6457 85.2975C95.8629 85.4971 97.009 86.0037 97.9752 86.7694C98.9415 87.535 99.6961 88.5343 100.167 89.6727C100.866 91.4403 100.802 93.4036 100.587 95.2871C100.229 98.2997 99.5281 101.262 98.497 104.115" fill="#2F2E41"/>
    </g>
    <defs>
    <clipPath id="clip0">
    <rect width="445" height="348" fill="white"/>
    </clipPath>
    </defs>
</svg>
