<svg width="115" height="36" viewBox="0 0 115 36" fill="none" xmlns="http://www.w3.org/2000/svg">
    <path d="M19.92 9.248V26H16.56V15.104L12.072 26H9.528L5.016 15.104V26H1.656V9.248H5.472L10.8 21.704L16.128 9.248H19.92ZM24.9459 11.12C24.3539 11.12 23.8579 10.936 23.4579 10.568C23.0739 10.184 22.8819 9.712 22.8819 9.152C22.8819 8.592 23.0739 8.128 23.4579 7.76C23.8579 7.376 24.3539 7.184 24.9459 7.184C25.5379 7.184 26.0259 7.376 26.4099 7.76C26.8099 8.128 27.0099 8.592 27.0099 9.152C27.0099 9.712 26.8099 10.184 26.4099 10.568C26.0259 10.936 25.5379 11.12 24.9459 11.12ZM26.6019 12.704V26H23.2419V12.704H26.6019ZM35.1296 12.488C36.1216 12.488 36.9936 12.688 37.7456 13.088C38.4976 13.472 39.0896 13.976 39.5216 14.6V12.704H42.9056V26.096C42.9056 27.328 42.6576 28.424 42.1616 29.384C41.6656 30.36 40.9216 31.128 39.9296 31.688C38.9376 32.264 37.7376 32.552 36.3296 32.552C34.4416 32.552 32.8896 32.112 31.6736 31.232C30.4736 30.352 29.7936 29.152 29.6336 27.632H32.9696C33.1456 28.24 33.5216 28.72 34.0976 29.072C34.6896 29.44 35.4016 29.624 36.2336 29.624C37.2096 29.624 38.0016 29.328 38.6096 28.736C39.2176 28.16 39.5216 27.28 39.5216 26.096V24.032C39.0896 24.656 38.4896 25.176 37.7216 25.592C36.9696 26.008 36.1056 26.216 35.1296 26.216C34.0096 26.216 32.9856 25.928 32.0576 25.352C31.1296 24.776 30.3936 23.968 29.8496 22.928C29.3216 21.872 29.0576 20.664 29.0576 19.304C29.0576 17.96 29.3216 16.768 29.8496 15.728C30.3936 14.688 31.1216 13.888 32.0336 13.328C32.9616 12.768 33.9936 12.488 35.1296 12.488ZM39.5216 19.352C39.5216 18.536 39.3616 17.84 39.0416 17.264C38.7216 16.672 38.2896 16.224 37.7456 15.92C37.2016 15.6 36.6176 15.44 35.9936 15.44C35.3696 15.44 34.7936 15.592 34.2656 15.896C33.7376 16.2 33.3056 16.648 32.9696 17.24C32.6496 17.816 32.4896 18.504 32.4896 19.304C32.4896 20.104 32.6496 20.808 32.9696 21.416C33.3056 22.008 33.7376 22.464 34.2656 22.784C34.8096 23.104 35.3856 23.264 35.9936 23.264C36.6176 23.264 37.2016 23.112 37.7456 22.808C38.2896 22.488 38.7216 22.04 39.0416 21.464C39.3616 20.872 39.5216 20.168 39.5216 19.352ZM58.7393 12.704V26H55.3553V24.32C54.9233 24.896 54.3553 25.352 53.6513 25.688C52.9633 26.008 52.2113 26.168 51.3953 26.168C50.3553 26.168 49.4353 25.952 48.6353 25.52C47.8353 25.072 47.2033 24.424 46.7393 23.576C46.2913 22.712 46.0673 21.688 46.0673 20.504V12.704H49.4273V20.024C49.4273 21.08 49.6913 21.896 50.2193 22.472C50.7473 23.032 51.4673 23.312 52.3793 23.312C53.3073 23.312 54.0353 23.032 54.5633 22.472C55.0913 21.896 55.3553 21.08 55.3553 20.024V12.704H58.7393ZM74.4144 19.064C74.4144 19.544 74.3824 19.976 74.3184 20.36H64.5984C64.6784 21.32 65.0144 22.072 65.6064 22.616C66.1984 23.16 66.9264 23.432 67.7904 23.432C69.0384 23.432 69.9264 22.896 70.4544 21.824H74.0784C73.6944 23.104 72.9584 24.16 71.8704 24.992C70.7824 25.808 69.4464 26.216 67.8624 26.216C66.5824 26.216 65.4304 25.936 64.4064 25.376C63.3984 24.8 62.6064 23.992 62.0304 22.952C61.4704 21.912 61.1904 20.712 61.1904 19.352C61.1904 17.976 61.4704 16.768 62.0304 15.728C62.5904 14.688 63.3744 13.888 64.3824 13.328C65.3904 12.768 66.5504 12.488 67.8624 12.488C69.1264 12.488 70.2544 12.76 71.2464 13.304C72.2544 13.848 73.0304 14.624 73.5744 15.632C74.1344 16.624 74.4144 17.768 74.4144 19.064ZM70.9344 18.104C70.9184 17.24 70.6064 16.552 69.9984 16.04C69.3904 15.512 68.6464 15.248 67.7664 15.248C66.9344 15.248 66.2304 15.504 65.6544 16.016C65.0944 16.512 64.7504 17.208 64.6224 18.104H70.9344ZM80.2269 8.24V26H76.8669V8.24H80.2269Z" fill="#050505"/>
    <path d="M98.5466 26.96V30.152H84.4586V26.96H98.5466ZM102.988 12.08H107.236L112.468 17.456L107.236 22.832H102.988L108.244 17.456L102.988 12.08Z" fill="#007AFF"/>
</svg>
