<svg width="302" height="58" viewBox="0 0 302 58" fill="none" xmlns="http://www.w3.org/2000/svg">
<g clip-path="url(#clip0)">
<path d="M62.9233 16.9382C60.3824 16.9382 58.2873 18.9819 58.2873 21.5585V31.3324V41.106H62.9233V31.3324V21.5585H68.451H73.9787V16.9382H68.451H62.9233Z" fill="#2F3037"/>
<path d="M101.617 28.978V21.5143C101.617 18.9821 99.5661 16.8939 96.9806 16.8939H89.4916H82.0025C79.4614 16.8939 77.3663 18.9376 77.3663 21.5143V28.978V36.4415C77.3663 38.9739 79.4169 41.0619 82.0025 41.0619H89.4916H96.9806C99.5216 41.0619 101.617 39.0183 101.617 36.4415V28.978ZM96.9806 28.978V36.4415H89.4916H82.0025V28.978V21.5143H89.4916H96.9806V28.978Z" fill="#2F3037"/>
<path d="M110.89 16.9382C108.349 16.9382 106.254 18.9819 106.254 21.5585V29.0221V36.4858C106.254 39.018 108.304 41.106 110.89 41.106L127.205 40.8839V36.4858H110.89V29.0221V21.5585H127.205V17.1604L110.89 16.9382Z" fill="#2F3037"/>
<path d="M153.777 16.9382H147.492L138.308 26.6677H136.481V16.9382H131.845V28.9778V41.0617H136.481V31.2879H138.799H139.156L148.695 41.0617H155.07L142.811 28.4446L153.777 16.9382Z" fill="#2F3037"/>
<path d="M160.683 36.4415V31.2881L180.297 31.066V26.6677V21.5143C180.297 18.9821 178.246 16.8939 175.662 16.8939H168.172H160.683C158.143 16.8939 156.047 18.9376 156.047 21.5143V28.978V36.4415C156.047 38.9739 158.097 41.0619 160.683 41.0619L180.297 40.8398V36.4415H160.683ZM160.683 21.5143H168.172H175.662V26.6677H170.49H160.683V21.5143Z" fill="#2F3037"/>
<path d="M191.932 9.87451H190.148L187.295 13.3842V16.8938H183.773V21.5142L187.295 21.4697V36.4414C187.295 38.9738 189.346 41.0618 191.932 41.0618L199.421 40.8397V36.4414H191.932V21.4254L200.089 21.2921V16.8938H191.932V9.87451Z" fill="#2F3037"/>
<path d="M224.518 31.2881C224.518 28.7559 222.467 26.6677 219.883 26.6677H214.043H208.202V21.5143H224.518V17.116L208.202 16.8939C205.662 16.8939 203.567 18.9376 203.567 21.5143V26.6677C203.567 29.2001 205.616 31.2881 208.202 31.2881H214.043H219.883V36.4415H203.567V40.8398L219.883 41.0619C222.423 41.0619 224.518 39.0183 224.518 36.4415V31.2881Z" fill="#2F3037"/>
<path d="M248.724 16.9382H241.235H233.745C231.205 16.9382 229.11 18.9819 229.11 21.5585V29.0221V36.4858C229.11 39.018 231.161 41.106 233.745 41.106L253.359 40.8839V36.4858H233.745V31.3324L253.359 31.1101V26.712V21.5585C253.359 18.9819 251.31 16.9382 248.724 16.9382ZM248.724 26.6677H233.745V21.5141H241.235H248.724V26.6677Z" fill="#2F3037"/>
<path d="M277.609 16.9382L257.995 17.1604V21.5585H277.609V26.712L257.995 26.9341V31.3324V36.4858C257.995 39.018 260.046 41.106 262.631 41.106H270.12H277.609C280.151 41.106 282.246 39.0626 282.246 36.4858V29.0221V21.5585C282.202 18.9819 280.151 16.9382 277.609 16.9382ZM277.609 36.4414H270.12H262.631V31.2879H277.609V36.4414Z" fill="#2F3037"/>
<path d="M293.843 21.4254L302 21.2921V16.894H293.843V9.8302H292.059L289.206 13.3399V16.8495H285.684V21.4699L289.206 21.4254V36.3971C289.206 38.9295 291.257 41.0175 293.843 41.0175L301.332 40.7953V36.3971H293.843V21.4254Z" fill="#2F3037"/>
<path d="M46.0292 1.12248L38.4954 0.0118173C38.2725 -0.032609 38.0496 0.0562382 37.9606 0.145091L34.7509 4.32116C34.528 4.58772 34.4835 4.94314 34.5726 5.25413C34.6617 5.5651 34.3943 5.83167 34.0823 5.78724L31.4522 5.20969C31.051 5.12084 30.6052 5.25413 30.3378 5.60954L19.9065 18.9375C19.7282 19.204 19.3716 19.2928 19.0595 19.1596L15.0921 17.3824C14.7354 17.2048 14.3343 17.2492 14.0222 17.4713L12.0162 18.8486C11.7041 19.0707 11.2584 19.1151 10.9017 18.9375L9.92102 18.4487C9.29694 18.1377 8.53912 18.4932 8.3608 19.1596L7.64755 22.3139C7.46924 23.0691 7.78129 23.8244 8.44995 24.2242L9.9656 25.1571L14.8246 28.1338L17.1873 29.5998C17.8559 29.9996 18.7029 29.9108 19.2824 29.422L23.2498 25.9567C23.5618 25.6902 24.0523 25.6014 24.4088 25.8235L25.6124 26.4455C26.0137 26.6676 26.504 26.5787 26.816 26.2677L28.8221 24.4019C29.1342 24.0908 29.6245 24.0465 29.9811 24.2242L32.9679 25.6014C33.4136 25.8235 33.9486 25.6902 34.2607 25.2903L35.6425 23.5134L46.1182 10.141C46.6087 9.51905 46.2966 8.5861 45.4943 8.4084L43.1763 7.87527C42.6858 7.78642 42.4629 7.16446 42.8195 6.80904L46.4303 2.32197C46.787 1.78886 46.5642 1.21133 46.0292 1.12248Z" fill="#8257E6"/>
<path d="M11.4805 28.0449C11.2576 27.9115 11.0347 28.1337 11.1238 28.3558L12.2383 31.2879C12.3274 31.51 12.3274 31.7323 12.2829 31.9545L11.3021 35.7751C11.2576 36.0416 11.3467 36.3082 11.525 36.4415L14.3334 38.6183C14.6009 38.7961 14.9575 38.7961 15.1804 38.574L18.1225 35.9972C18.3009 35.864 18.5237 35.7751 18.7021 35.7306L22.0455 35.3752C22.2684 35.3308 22.3574 35.0198 22.1345 34.8866L11.4805 28.0449Z" fill="#8257E6"/>
<path d="M10.5001 37.9075C10.3218 37.7743 10.0543 37.7299 9.83145 37.8186L7.46882 38.9738C7.33509 39.0181 7.24592 39.1515 7.15677 39.2848L2.11947 51.6797C2.11947 51.7242 2.11947 51.724 2.11947 51.7685C2.16405 51.8129 2.20863 51.8574 2.29778 51.8574L3.4568 51.4132C3.50139 51.4132 3.54595 51.4132 3.59053 51.4132C3.6351 51.4575 3.6797 51.5464 3.63512 51.5908L0.0242984 57.4996C-0.0648575 57.6328 0.113458 57.7661 0.202614 57.6328L13.2639 44.5715C13.3977 44.4381 13.4423 44.3049 13.4868 44.1273L13.7543 40.7507C13.7543 40.5286 13.6652 40.351 13.5314 40.2176L10.5001 37.9075Z" fill="#8257E6"/>
</g>
<defs>
<clipPath id="clip0">
<rect width="302" height="58" fill="white"/>
</clipPath>
</defs>
</svg>
